# xmcd CD database file
#
# Track frame offsets:
#	150
#	28767
#	47970
#
# Disc length: 869 seconds
#
# Revision: 0
# Processed by: cddbd v1.5.1PL0 Copyright (c) Steve Scherf et al.
# Submitted via: CDex 1.50
#
DISCID=22036303
DTITLE=NEW CINEMA 蜥蜴 - Lovely Generation-goes&fights-
DYEAR=2001
DGENRE=J-POP
TTITLE0=Lovely Generation-goes&fights-(Club Edit)
TTITLE1=Lovely Generation-goes&fights-(Radio Edit)
TTITLE2=Moon
EXTD=YEAR: 2001
EXTT0=
EXTT1=
EXTT2=
PLAYORDER=
